{"title":"BROTHERS (2015) Desi PDvD X264 {VikkyMaxx}","uid":12233301,"size":737764771,"categoryP":"video","categoryS":"movies","magnet":"?xt=urn:btih:92a2f5d39592f5de7cf52936b8b00f862c4fa54e&amp;dn=BROTHERS+%282015%29+Desi+PDvD+X264+%7BVikkyMaxx%7D&amp;tr=udp%3A%2F%2Ftracker.openbittorrent.com%3A80&amp;tr=udp%3A%2F%2Fopen.demonii.com%3A1337&amp;tr=udp%3A%2F%2Ftracker.coppersurfer.tk%3A6969&amp;tr=udp%3A%2F%2Fexodus.desync.com%3A6969","seeders":1,"leechers":1,"uploader":"shailendramaxx","files":20,"time":1439622065,"description":"Happy Independence Day\n\nVikkyMaxx Presemts :-\n\nIMDB :- http://www.imdb.com/title/tt3802576\n\nRatings :- 7.8/10 \n\nPlot :- The film is an official remake of the 2011 Hollywood film Warrior. It is about two estranged brothers whose entrance into a mixed martial arts tournament forces them to come to terms with their past and each other.\n\nCast :- Akshay Kumar, Jackie Shroff, Sidharth Malhotra, Jacqueline Fernandez \n\nGeneral:-\n \nComplete name : BROTHERS (2015) Desi PDvD X264 {VikkyMaxx}\nFormat : Matroska \nFormat version : Version 2 \nFile size : 697 MiB \nDuration : 2h 31mn \nOverall bit rate : 643 Kbps \nEncoded date : UTC 2015-08-15 02:56:31 \nWriting application : mkvmerge v7.7.0 ('Six Voices') 32bit built on Feb 28 2015 23:23:00 \nWriting library : libebml v1.3.1 + libmatroska v1.4.2 \nDURATION : 02:31:38.414000000 \nNUMBER_OF_FRAMES : 261224 \nNUMBER_OF_BYTES : 509511192 \nSTATISTICS_WRITING_APP : mkvmerge v7.7.0 ('Six Voices') 32bit built on Feb 28 2015 23:23:00 \nSource : DRC (A Big Thanks)\n\nVideo:-\n \nID : 1 \nFormat : AVC \nFormat/Info : Advanced Video Codec \nFormat profile : &lt;a class=&quot;__cf_email__&quot; href=&quot;/cdn-cgi/l/email-protection&quot; data-cfemail=&quot;5119383639111d637f60&quot;&gt;[email&amp;#160;protected]&lt;/a&gt;&lt;script data-cfhash='f9e31' type=&quot;text/javascript&quot;&gt;\n/* &lt;![CDATA[ */!function(){try{var t=&quot;currentScript&quot;in document?document.currentScript:function(){for(var t=document.getElementsByTagName(&quot;script&quot;),e=t.length;e--;)if(t[e].getAttribute(&quot;data-cfhash&quot;))return t[e]}();if(t&amp;&amp;t.previousSibling){var e,r,n,i,c=t.previousSibling,a=c.getAttribute(&quot;data-cfemail&quot;);if(a){for(e=&quot;&quot;,r=parseInt(a.substr(0,2),16),n=2;a.length-n;n+=2)i=parseInt(a.substr(n,2),16)^r,e+=String.fromCharCode(i);e=document.createTextNode(e),c.parentNode.replaceChild(e,c)}t.parentNode.removeChild(t);}}catch(u){}}()/* ]]&gt; */&lt;/script&gt; \nFormat settings, CABAC : Yes \nFormat settings, ReFrames : 4 frames \nCodec ID : V_MPEG4/ISO/AVC \nDuration : 2h 31mn \nBit rate : 182 Kbps \nNominal bit rate : 193 Kbps \nWidth : 608 pixels \nHeight : 256 pixels \nDisplay aspect ratio : 2.40:1 \nFrame rate mode : Constant \nFrame rate : 25.000 fps \nColor space : YUV \nChroma subsampling : 4:2:0 \nBit depth : 8 bits \nScan type : Progressive \nBits/(Pixel*Frame) : 0.047 \nStream size : 198 MiB (28%) \nWriting library : x264 core 146 r2538 121396c \nEncoding settings : cabac=1 / ref=3 / deblock=1:0:0 \nDefault : Yes \nForced : No \n\nAudio:-\n \nID : 2 \nFormat : AC-3 \nFormat/Info : Audio Coding 3 \nMode extension : CM (complete main) \nFormat settings, Endianness : Big \nCodec ID : A_AC3 \nDuration : 2h 31mn \nBit rate mode : Constant \nBit rate : 448 Kbps \nChannel(s) : 2 channels \nChannel positions : Front: L R \nSampling rate : 44.1 KHz \nCompression mode : Lossy \nStream size : 486 MiB (70%) \nDefault : Yes \nForced : No \n\n\nSCREENS :-\n\n &lt;a href=&quot;\nhttp://i.imgur.com/zC86Rje.png&quot; rel=&quot;nofollow&quot; target=&quot;_NEW&quot;&gt;\nhttp://i.imgur.com/zC86Rje.png&lt;/a&gt;\n &lt;a href=&quot;\nhttp://i.imgur.com/mu6alw7.png&quot; rel=&quot;nofollow&quot; target=&quot;_NEW&quot;&gt;\nhttp://i.imgur.com/mu6alw7.png&lt;/a&gt;\n &lt;a href=&quot;\nhttp://i.imgur.com/tpAZvTf.png&quot; rel=&quot;nofollow&quot; target=&quot;_NEW&quot;&gt;\nhttp://i.imgur.com/tpAZvTf.png&lt;/a&gt;\n &lt;a href=&quot;\nhttp://i.imgur.com/Lt58cV5.png&quot; rel=&quot;nofollow&quot; target=&quot;_NEW&quot;&gt;\nhttp://i.imgur.com/Lt58cV5.png&lt;/a&gt;\n &lt;a href=&quot;\nhttp://i.imgur.com/OsFs09Z.png&quot; rel=&quot;nofollow&quot; target=&quot;_NEW&quot;&gt;\nhttp://i.imgur.com/OsFs09Z.png&lt;/a&gt;\n &lt;a href=&quot;\nhttp://i.imgur.com/6ipauzl.png&quot; rel=&quot;nofollow&quot; target=&quot;_NEW&quot;&gt;\nhttp://i.imgur.com/6ipauzl.png&lt;/a&gt;\n &lt;a href=&quot;\nhttp://i.imgur.com/W8VYBKx.png&quot; rel=&quot;nofollow&quot; target=&quot;_NEW&quot;&gt;\nhttp://i.imgur.com/W8VYBKx.png&lt;/a&gt;\n &lt;a href=&quot;\nhttp://i.imgur.com/pTgBT49.png&quot; rel=&quot;nofollow&quot; target=&quot;_NEW&quot;&gt;\nhttp://i.imgur.com/pTgBT49.png&lt;/a&gt;\n &lt;a href=&quot;\nhttp://i.imgur.com/RpsHXs4.png&quot; rel=&quot;nofollow&quot; target=&quot;_NEW&quot;&gt;\nhttp://i.imgur.com/RpsHXs4.png&lt;/a&gt;\n\n\n             \n\n             \n              ********** PLEASE SEED AS LONG AS YOU CAN AFTER DOWNLOAD **********\n                       \n                          ***** THANK YOU REGARDS - VikkyMaxx *****","torrent":{"xt":"urn:btih:92a2f5d39592f5de7cf52936b8b00f862c4fa54e","amp;dn":"BROTHERS+%282015%29+Desi+PDvD+X264+%7BVikkyMaxx%7D","amp;tr":["udp%3A%2F%2Ftracker.openbittorrent.com%3A80","udp%3A%2F%2Fopen.demonii.com%3A1337","udp%3A%2F%2Ftracker.coppersurfer.tk%3A6969","udp%3A%2F%2Fexodus.desync.com%3A6969"],"infoHash":"92a2f5d39592f5de7cf52936b8b00f862c4fa54e","infoHashBuffer":{"type":"Buffer","data":[146,162,245,211,149,146,245,222,124,245,41,54,184,176,15,134,44,79,165,78]},"announce":[],"urlList":[]}}